<?xml version="1.0" encoding="UTF-8" standalone="no"?>
<!-- Created with Inkscape (http://www.inkscape.org/) -->

<svg
   width="1600"
   height="1600"
   viewBox="0 0 1600 1600"
   version="1.1"
   id="svg1"
   inkscape:version="1.4.2 (f4327f4, 2025-05-13)"
   sodipodi:docname="FinalLogoBuildUpNow.svg"
   xmlns:inkscape="http://www.inkscape.org/namespaces/inkscape"
   xmlns:sodipodi="http://sodipodi.sourceforge.net/DTD/sodipodi-0.dtd"
   xmlns:xlink="http://www.w3.org/1999/xlink"
   xmlns="http://www.w3.org/2000/svg"
   xmlns:svg="http://www.w3.org/2000/svg">
  <sodipodi:namedview
     id="namedview1"
     pagecolor="#ffffff"
     bordercolor="#111111"
     borderopacity="1"
     inkscape:showpageshadow="0"
     inkscape:pageopacity="0"
     inkscape:pagecheckerboard="1"
     inkscape:deskcolor="#d1d1d1"
     inkscape:document-units="px"
     inkscape:zoom="0.35355339"
     inkscape:cx="468.10469"
     inkscape:cy="890.95454"
     inkscape:window-width="1474"
     inkscape:window-height="1020"
     inkscape:window-x="291"
     inkscape:window-y="0"
     inkscape:window-maximized="0"
     inkscape:current-layer="layer1" />
  <defs
     id="defs1">
    <linearGradient
       id="linearGradient6"
       inkscape:collect="always">
      <stop
         style="stop-color:#22e6b8;stop-opacity:1;"
         offset="0"
         id="stop6" />
      <stop
         style="stop-color:#1d9bf0;stop-opacity:0;"
         offset="1"
         id="stop7" />
    </linearGradient>
    <linearGradient
       id="linearGradient4"
       inkscape:collect="always">
      <stop
         style="stop-color:#22e6b8;stop-opacity:1;"
         offset="0"
         id="stop4" />
      <stop
         style="stop-color:#1d9bf0;stop-opacity:0;"
         offset="1"
         id="stop5" />
    </linearGradient>
    <linearGradient
       inkscape:collect="always"
       xlink:href="#linearGradient4"
       id="linearGradient5"
       x1="217.16201"
       y1="800"
       x2="1352.8376"
       y2="800"
       gradientUnits="userSpaceOnUse" />
    <linearGradient
       inkscape:collect="always"
       xlink:href="#linearGradient6"
       id="linearGradient7"
       x1="-1075.4314"
       y1="1225.8857"
       x2="574.45509"
       y2="1225.8857"
       gradientUnits="userSpaceOnUse" />
  </defs>
  <g
     inkscape:label="Layer 1"
     inkscape:groupmode="layer"
     id="layer1">
    <path
       id="path1"
       style="fill:url(#linearGradient5);fill-rule:evenodd;stroke-width:1.2242;stroke:none"
       d="m 781.40635,116.1426 a 567.83813,683.87024 0 0 0 -35.19531,1.58398 567.83813,683.87024 0 0 0 -527.85547,726.58985 567.83813,683.87024 0 0 0 40.76562,213.67967 45,849 61.445616 0 1 58.66602,-35.6133 494.0643,683.87476 0 0 1 -25.8125,-178.06637 494.0643,683.87476 0 0 1 459.27539,-726.59375 494.0643,683.87476 0 0 1 30.15625,-1.58008 z m 7.1875,0 A 494.0643,683.87476 0 0 1 1236.3595,521.86721 45,849 61.445616 0 1 1292.9396,494.28713 567.83813,683.87024 0 0 0 788.59385,116.1426 Z m 527.27735,441.14453 a 45,849 61.445616 0 1 -59.9121,36.02148 494.0643,683.87476 0 0 1 21.8301,157.57618 494.0643,683.87476 0 0 1 -455.57426,731.04681 l -6.93164,0.6582 a 494.0643,683.87476 0 0 1 -26.59179,1.2676 567.83813,683.87024 0 0 0 31.11328,-1.2715 l 7.96679,-0.6582 a 567.83813,683.87024 0 0 0 523.59962,-731.04292 567.83813,683.87024 0 0 0 -35.5,-193.59765 z M 337.82627,1090.793 a 45,849 61.445616 0 1 -55.6914,26.8593 567.83813,683.87024 0 0 0 499.17382,366.2051 494.0643,683.87476 0 0 1 -443.48242,-393.0644 z" />
    <path
       style="fill:url(#linearGradient7);fill-rule:evenodd;stroke-width:3.5071987;stroke:#1d9bf0;stroke-opacity:1;stroke-dasharray:none;stroke-linecap:butt;paint-order:fill markers stroke;stroke-miterlimit:4.7;stroke-dashoffset:0"
       id="path3"
       sodipodi:type="arc"
       sodipodi:cx="-250.47641"
       sodipodi:cy="1225.8857"
       sodipodi:rx="823.23206"
       sodipodi:ry="32.443672"
       sodipodi:start="1.5094636"
       sodipodi:end="1.4954004"
       sodipodi:open="true"
       sodipodi:arc-type="arc"
       d="m -200.01699,1258.2684 a 823.23206,32.443672 0 0 1 -871.96111,-30.2802 823.23206,32.443672 0 0 1 765.26581,-34.4703 823.23206,32.443672 0 0 1 877.34213,30.0378 823.23206,32.443672 0 0 1 -759.09669,34.6815"
       transform="matrix(0.87801525,-0.47863266,0.83198789,0.55479379,0,0)" />
  </g>
</svg>
