<?xml version="1.0" encoding="UTF-8" standalone="no"?>
<svg
   width="1446.637"
   height="1529.4565"
   version="1.1"
   viewBox="0 0 1446.637 1529.4565"
   id="svg3"
   sodipodi:docname="Syncline-Logo-Vivus.svg"
   inkscape:version="1.4.2 (f4327f4, 2025-05-13)"
   xmlns:inkscape="http://www.inkscape.org/namespaces/inkscape"
   xmlns:sodipodi="http://sodipodi.sourceforge.net/DTD/sodipodi-0.dtd"
   xmlns="http://www.w3.org/2000/svg"
   xmlns:svg="http://www.w3.org/2000/svg">
  <sodipodi:namedview
     id="namedview3"
     pagecolor="#ffffff"
     bordercolor="#111111"
     borderopacity="1"
     inkscape:showpageshadow="0"
     inkscape:pageopacity="0"
     inkscape:pagecheckerboard="1"
     inkscape:deskcolor="#d1d1d1"
     inkscape:zoom="0.483125"
     inkscape:cx="723.41527"
     inkscape:cy="764.81242"
     inkscape:window-width="1920"
     inkscape:window-height="991"
     inkscape:window-x="-9"
     inkscape:window-y="-9"
     inkscape:window-maximized="1"
     inkscape:current-layer="svg3" />
  <defs
     id="defs2">
    <linearGradient
       id="a"
       x1="-1075.4"
       x2="574.46002"
       y1="1225.9"
       y2="1225.9"
       gradientTransform="translate(-2.4583e-4,3.2044e-4)"
       gradientUnits="userSpaceOnUse">
      <stop
         stop-color="#22e6b8"
         offset="0"
         id="stop1" />
      <stop
         stop-color="#1d9bf0"
         stop-opacity="0"
         offset="1"
         id="stop2" />
    </linearGradient>
  </defs>
  <g
     fill-rule="evenodd"
     id="g3"
     transform="translate(-76.709688,-35.272)">
    <path
       d="m 780.99,35.274 a 634.99,764.74 0 0 0 -39.357,1.7713 634.99,764.74 0 0 0 -590.28,812.51 634.99,764.74 0 0 0 45.586,238.95 50.321,949.4 61.446 0 1 65.603,-39.825 552.49,764.75 0 0 1 -28.865,-199.12 552.49,764.75 0 0 1 513.59,-812.52 552.49,764.75 0 0 1 33.722,-1.7669 z m 8.0374,0 a 552.49,764.75 0 0 1 500.72,453.7 50.321,949.4 61.446 0 1 63.271,-30.842 634.99,764.74 0 0 0 -563.99,-422.86 z m 589.63,493.31 a 50.321,949.4 61.446 0 1 -66.997,40.281 552.49,764.75 0 0 1 24.412,176.21 552.49,764.75 0 0 1 -509.45,817.5 l -7.7513,0.7361 a 552.49,764.75 0 0 1 -29.736,1.4174 634.99,764.74 0 0 0 34.793,-1.4218 l 8.9089,-0.736 a 634.99,764.74 0 0 0 585.52,-817.49 634.99,764.74 0 0 0 -39.698,-216.49 z m -1093.7,596.59 a 50.321,949.4 61.446 0 1 -62.277,30.036 634.99,764.74 0 0 0 558.2,409.51 552.49,764.75 0 0 1 -495.93,-439.55 z"
       fill="#1d9bf0"
       id="path2" />
    <path
       transform="matrix(0.87802,-0.47863,0.83199,0.55479,0,0)"
       d="m -200.02,1258.3 a 823.23,32.444 0 0 1 -871.96,-30.28 823.23,32.444 0 0 1 765.27,-34.47 823.23,32.444 0 0 1 877.34,30.038 823.23,32.444 0 0 1 -759.1,34.682"
       fill="url(#a)"
       style="fill:url(#a);paint-order:fill markers stroke"
       id="path3" />
  </g>
</svg>
