<svg version="1.1" viewBox="0 0 1379.3 1488.5" xmlns="http://www.w3.org/2000/svg">
 <defs>
  <linearGradient id="a" x1="-1075.4" x2="574.46" y1="1225.9" y2="1225.9" gradientTransform="matrix(.83716 -.46581 .79327 .53992 -73.14 -34.327)" gradientUnits="userSpaceOnUse">
   <stop stop-color="#22e6b8" offset="0"/>
   <stop stop-color="#1d9bf0" stop-opacity="0" offset="1"/>
  </linearGradient>
 </defs>
 <path d="m671.5 0.001946a605.44 744.25 0 0 0-37.525 1.7238 605.44 744.25 0 0 0-562.81 790.74 605.44 744.25 0 0 0 43.464 232.55 48.74 909.53 60.947 0 1 62.55-38.758 526.78 744.26 0 0 1-27.522-193.78 526.78 744.26 0 0 1 489.69-790.75 526.78 744.26 0 0 1 32.153-1.7196zm7.6633 0a526.78 744.26 0 0 1 477.42 441.54 48.74 909.53 60.947 0 1 60.326-30.016 605.44 744.25 0 0 0-537.74-411.53zm562.19 480.09a48.74 909.53 60.947 0 1-63.879 39.202 526.78 744.26 0 0 1 23.276 171.49 526.78 744.26 0 0 1-485.74 795.6l-7.3906 0.7164a526.78 744.26 0 0 1-28.352 1.3794 605.44 744.25 0 0 0 33.174-1.3837l8.4943-0.7163a605.44 744.25 0 0 0 558.27-795.59 605.44 744.25 0 0 0-37.85-210.69zm-1042.8 580.6a48.74 909.53 60.947 0 1-59.379 29.231 605.44 744.25 0 0 0 532.22 398.54 526.78 744.26 0 0 1-472.85-427.77z" fill="#1d9bf0" fill-rule="evenodd" stroke-width=".96328"/>
 <path d="m757.58 738.23a27.817 788.8 60.944 0 1-753.99 389.81 27.817 788.8 60.944 0 1 613.31-375.08 27.817 788.8 60.944 0 1 758.3-392.45 27.817 788.8 60.944 0 1-607.97 372.32" fill="url(#a)" fill-rule="evenodd" stroke-width=".90637" style="paint-order:fill markers stroke"/>
</svg>
