<?xml version="1.0" encoding="UTF-8" standalone="no"?>
<!-- Created with Inkscape (http://www.inkscape.org/) -->

<svg
   width="1600"
   height="1600"
   viewBox="0 0 1600 1600"
   version="1.1"
   id="svg1"
   inkscape:version="1.4.2 (f4327f4, 2025-05-13)"
   sodipodi:docname="Syncline-Logo-Brand.svg"
   xmlns:inkscape="http://www.inkscape.org/namespaces/inkscape"
   xmlns:sodipodi="http://sodipodi.sourceforge.net/DTD/sodipodi-0.dtd"
   xmlns:xlink="http://www.w3.org/1999/xlink"
   xmlns="http://www.w3.org/2000/svg"
   xmlns:svg="http://www.w3.org/2000/svg">
  <sodipodi:namedview
     id="namedview1"
     pagecolor="#ffffff"
     bordercolor="#111111"
     borderopacity="1"
     inkscape:showpageshadow="0"
     inkscape:pageopacity="0"
     inkscape:pagecheckerboard="1"
     inkscape:deskcolor="#d1d1d1"
     inkscape:document-units="px"
     inkscape:zoom="0.35355339"
     inkscape:cx="793.37381"
     inkscape:cy="890.95454"
     inkscape:window-width="1474"
     inkscape:window-height="1020"
     inkscape:window-x="291"
     inkscape:window-y="0"
     inkscape:window-maximized="0"
     inkscape:current-layer="layer1" />
  <defs
     id="defs1">
    <linearGradient
       id="linearGradient6"
       inkscape:collect="always">
      <stop
         style="stop-color:#22e6b8;stop-opacity:1;"
         offset="0"
         id="stop6" />
      <stop
         style="stop-color:#1d9bf0;stop-opacity:0;"
         offset="1"
         id="stop7" />
    </linearGradient>
    <linearGradient
       inkscape:collect="always"
       xlink:href="#linearGradient6"
       id="linearGradient7"
       x1="-1075.4314"
       y1="1225.8857"
       x2="574.45509"
       y2="1225.8857"
       gradientUnits="userSpaceOnUse"
       gradientTransform="translate(-2.4582863e-4,3.2043638e-4)" />
  </defs>
  <g
     inkscape:label="Layer 1"
     inkscape:groupmode="layer"
     id="layer1">
    <g
       id="g10">
      <path
         id="path1"
         style="fill:#1d9bf0;fill-opacity:1;fill-rule:evenodd;stroke:none;stroke-width:1.36896;stroke-opacity:1"
         d="m 780.9905,35.274012 a 634.98702,764.74035 0 0 0 -39.35728,1.771291 634.98702,764.74035 0 0 0 -590.27627,812.511707 634.98702,764.74035 0 0 0 45.5863,238.94799 50.321412,949.39729 61.445616 0 1 65.60349,-39.8246 552.48917,764.7454 0 0 1 -28.86493,-199.12339 552.48917,764.7454 0 0 1 513.58636,-812.516068 552.48917,764.7454 0 0 1 33.72233,-1.76693 z m 8.03745,0 A 552.48917,764.7454 0 0 1 1289.7435,488.97702 50.321412,949.39729 61.445616 0 1 1353.0144,458.13549 634.98702,764.74035 0 0 0 789.02795,35.274012 Z M 1378.6577,528.58546 a 50.321412,949.39729 61.445616 0 1 -66.9968,40.28115 552.48917,764.7454 0 0 1 24.4115,176.21013 552.48917,764.7454 0 0 1 -509.44755,817.49566 l -7.75133,0.7361 a 552.48917,764.7454 0 0 1 -29.73636,1.4174 634.98702,764.74035 0 0 0 34.79254,-1.4218 l 8.90888,-0.736 A 634.98702,764.74035 0 0 0 1418.3558,745.07673 634.98702,764.74035 0 0 0 1378.6577,528.58546 Z M 284.95549,1125.1803 a 50.321412,949.39729 61.445616 0 1 -62.27711,30.0355 634.98702,764.74035 0 0 0 558.20291,409.5101 552.48917,764.7454 0 0 1 -495.9258,-439.5456 z" />
      <path
         style="fill:url(#linearGradient7);fill-rule:evenodd;stroke:none;stroke-width:3.5072;stroke-linecap:butt;stroke-miterlimit:4.7;stroke-dasharray:none;stroke-dashoffset:0;stroke-opacity:1;paint-order:fill markers stroke"
         id="path3"
         sodipodi:type="arc"
         sodipodi:cx="-250.47665"
         sodipodi:cy="1225.886"
         sodipodi:rx="823.23206"
         sodipodi:ry="32.443672"
         sodipodi:start="1.5094636"
         sodipodi:end="1.4954004"
         sodipodi:open="true"
         sodipodi:arc-type="arc"
         d="m -200.01724,1258.2687 a 823.23206,32.443672 0 0 1 -871.96106,-30.2803 823.23206,32.443672 0 0 1 765.26577,-34.4703 823.23206,32.443672 0 0 1 877.34213,30.0378 823.23206,32.443672 0 0 1 -759.0967,34.6816"
         transform="matrix(0.87801525,-0.47863266,0.83198789,0.55479379,0,0)" />
    </g>
  </g>
</svg>
