<svg version="1.1" viewBox="0 0 1600 1600" xmlns="http://www.w3.org/2000/svg">
 <defs>
  <linearGradient id="a" x1="177" x2="1408.5" y1="1399.7" y2="194.47" gradientTransform="translate(175.55,43.31)" gradientUnits="userSpaceOnUse">
   <stop stop-color="#0a1a2f" offset="0"/>
   <stop stop-color="#07f" offset="1"/>
  </linearGradient>
 </defs>
 <g transform="translate(-175.56 -43.304)" fill-rule="evenodd">
  <path d="m966.49 86.621a600.7 756.78 0 0 0-27.939 1.3516 600.7 756.78 0 0 0-562.55 801.84 600.7 756.78 0 0 0 106.73 386.18 48.261 1013.5 45.498 0 1 93.479-98.332 445.14 756.85 0 0 1-44.953-287.85 445.14 756.85 0 0 1 416.88-801.92 445.14 756.85 0 0 1 18.355-1.2812zm18.137 0a445.14 756.85 0 0 1 361.13 336.41 48.261 1013.5 45.498 0 1 83.256-76.055 600.7 756.78 0 0 0-444.39-260.35zm483.76 324a48.261 1013.5 45.498 0 1-93.476 98.332 445.14 756.85 0 0 1 44.943 287.61 445.14 756.85 0 0 1-416.73 802.14l-0.2773 0.029a445.14 756.85 0 0 1-18.217 1.2657 600.7 756.78 0 0 0 27.75-1.3379l0.3769-0.029a600.7 756.78 0 0 0 562.36-802.06 600.7 756.78 0 0 0-106.72-385.95zm-863.03 852.97a48.261 1013.5 45.498 0 1-83.256 76.055 600.7 756.78 0 0 0 444.39 260.35 445.14 756.85 0 0 1-361.13-336.41z" fill="#07f"/>
  <path d="m353.46 1457.6a22.59 875.89 45.455 0 1 567.92-592.55 22.59 875.89 45.455 0 1 676.26-635.92 22.59 875.89 45.455 0 1-567.71 592.36 22.59 875.89 45.455 0 1-676.44 636.11" fill="url(#a)"/>
 </g>
</svg>
