<?xml version="1.0" encoding="UTF-8" standalone="no"?>
<svg
   version="1.1"
   viewBox="0 0 2000 2000"
   id="svg3"
   sodipodi:docname="Syncline_Master_18FEB_2.svg"
   inkscape:version="1.4.2 (f4327f4, 2025-05-13)"
   xmlns:inkscape="http://www.inkscape.org/namespaces/inkscape"
   xmlns:sodipodi="http://sodipodi.sourceforge.net/DTD/sodipodi-0.dtd"
   xmlns="http://www.w3.org/2000/svg"
   xmlns:svg="http://www.w3.org/2000/svg">
  <sodipodi:namedview
     id="namedview3"
     pagecolor="#ffffff"
     bordercolor="#111111"
     borderopacity="1"
     inkscape:showpageshadow="0"
     inkscape:pageopacity="0"
     inkscape:pagecheckerboard="1"
     inkscape:deskcolor="#d1d1d1"
     inkscape:zoom="0.3865"
     inkscape:cx="1000"
     inkscape:cy="1000"
     inkscape:window-width="1902"
     inkscape:window-height="973"
     inkscape:window-x="192"
     inkscape:window-y="0"
     inkscape:window-maximized="0"
     inkscape:current-layer="svg3" />
  <defs
     id="defs2">
    <linearGradient
       id="a"
       x1="177"
       x2="1408.5"
       y1="1399.7"
       y2="194.47"
       gradientTransform="matrix(1.1256 0 0 1.1256 458.95 140.74)"
       gradientUnits="userSpaceOnUse">
      <stop
         stop-color="#0a1a2f"
         offset="0"
         id="stop1" />
      <stop
         stop-color="#07f"
         offset="1"
         id="stop2" />
    </linearGradient>
  </defs>
  <g
     transform="translate(-359.41 -41.199)"
     fill-rule="evenodd"
     id="g3">
    <path
       d="m1348.6 139.09a716.14 902.21 0 0 0-33.309 1.6113 716.14 902.21 0 0 0-670.67 955.94 716.14 902.21 0 0 0 127.25 460.4 57.536 1208.3 45.498 0 1 111.44-117.23 530.69 902.3 0 0 1-53.592-343.17 530.69 902.3 0 0 1 497-956.03 530.69 902.3 0 0 1 21.883-1.5275zm21.622 0a530.69 902.3 0 0 1 430.54 401.06 57.536 1208.3 45.498 0 1 99.256-90.671 716.14 902.21 0 0 0-529.79-310.39zm576.73 386.27a57.536 1208.3 45.498 0 1-111.44 117.23 530.69 902.3 0 0 1 53.581 342.88 530.69 902.3 0 0 1-496.82 956.3l-0.3306 0.035a530.69 902.3 0 0 1-21.718 1.5089 716.14 902.21 0 0 0 33.083-1.595l0.4493-0.035a716.14 902.21 0 0 0 670.43-956.2 716.14 902.21 0 0 0-127.23-460.12zm-1028.9 1016.9a57.536 1208.3 45.498 0 1-99.256 90.671 716.14 902.21 0 0 0 529.79 310.39 530.69 902.3 0 0 1-430.54-401.06z"
       fill="#07f"
       id="path2" />
    <path
       d="m659.19 1732.6a25.427 985.88 45.455 0 1 639.24-666.97 25.427 985.88 45.455 0 1 761.18-715.78 25.427 985.88 45.455 0 1-639 666.74 25.427 985.88 45.455 0 1-761.38 715.99"
       fill="url(#a)"
       id="path3" />
  </g>
</svg>
