<svg version="1.1" viewBox="0 0 3000 3000" xmlns="http://www.w3.org/2000/svg">
 <g transform="translate(-643.27 -139.09)" fill="none" stroke="#0a3d62" stroke-linecap="round" stroke-linejoin="round" stroke-width="14">
  <path d="m2127.1 293.38a1068.3 1345.9 0 0 0-49.688 2.4036 1068.3 1345.9 0 0 0-1000.5 1426 1068.3 1345.9 0 0 0 189.82 686.79 85.828 1802.4 45.498 0 1 166.24-174.87 791.65 1346 0 0 1-79.945-511.91 791.65 1346 0 0 1 741.38-1426.1 791.65 1346 0 0 1 32.644-2.2786zm32.254 0a791.65 1346 0 0 1 642.25 598.27 85.828 1802.4 45.498 0 1 148.06-135.26 1068.3 1345.9 0 0 0-790.31-463.02zm860.32 576.21a85.828 1802.4 45.498 0 1-166.24 174.87 791.65 1346 0 0 1 79.928 511.49 791.65 1346 0 0 1-741.12 1426.5l-0.4931 0.052a791.65 1346 0 0 1-32.397 2.2509 1068.3 1345.9 0 0 0 49.351-2.3793l0.6703-0.052a1068.3 1345.9 0 0 0 1000.1-1426.4 1068.3 1345.9 0 0 0-189.8-686.37zm-1534.8 1516.9a85.828 1802.4 45.498 0 1-148.06 135.26 1068.3 1345.9 0 0 0 790.31 463.02 791.65 1346 0 0 1-642.25-598.27z" style="paint-order:stroke markers fill"/>
  <path d="m1189.4 2581a34.64 1343.1 45.455 0 1 870.84-908.62 34.64 1343.1 45.455 0 1 1037-975.11 34.64 1343.1 45.455 0 1-870.52 908.31 34.64 1343.1 45.455 0 1-1037.2 975.4"/>
 </g>
</svg>
